# xmcd
#
# Track frame offsets: 
#        150
#        20110
#        34580
#        53620
#        70210
#        86592
#        104125
#        118115
#        135055
#        153060
#        168617
#        185550
#
# Disc length: 2679 seconds
#
# Revision: 4
# Processed by: cddbd v1.5.2PL0 Copyright (c) Steve Scherf et al.
# Submitted via: ExactAudioCopy v0.99pb5
#
DISCID=9b0a750c
DTITLE=Billy Ray Cyrus - The Best Of Billy Ray Cyrus - Cover To Cover
DYEAR=1997
DGENRE=Country
TTITLE0=It's All The Same To Me
TTITLE1=Cover To Cover
TTITLE2=Bluegrass State Of Mind
TTITLE3=Trail Of Tears
TTITLE4=One Last Thrill
TTITLE5=Storm In The Heartland
TTITLE6=Words By Heart
TTITLE7=Somebody New
TTITLE8=In The Heart Of A Women
TTITLE9=She's Not Cryin' Anymore
TTITLE10=Could've Been Me
TTITLE11=Achy Breaky Heart
EXTD=YEAR: 1997
EXTT0=
EXTT1=
EXTT2=
EXTT3=
EXTT4=
EXTT5=
EXTT6=
EXTT7=
EXTT8=
EXTT9=
EXTT10=
EXTT11=
PLAYORDER=
